<?xml version="1.0"?>
<svg xmlns="http://www.w3.org/2000/svg" height="512px" viewBox="0 0 64 64" width="512px" class=""><g transform="matrix(0.308545 0 0 0.308545 22.1266 22.1266)"><g id="advertising-advertisement-worldwide-computer-cloud"><path d="m13 17h38a4 4 0 0 1 4 4v24a0 0 0 0 1 0 0h-46a0 0 0 0 1 0 0v-24a4 4 0 0 1 4-4z" fill="#46f8ff" data-original="#46F8FF" class=""/><path d="m55 45v2a4 4 0 0 1 -4 4h-38a4 4 0 0 1 -4-4v-2z" fill="#ff7956" data-original="#FF7956"/><path d="m41 59v2h-18v-2a2.006 2.006 0 0 1 2-2h14a2.006 2.006 0 0 1 2 2z" fill="#ff7956" data-original="#FF7956"/><path d="m55 21v24h-4v-24a4 4 0 0 0 -4-4h4a4 4 0 0 1 4 4z" fill="#00b6bd" data-original="#00B6BD"/><path d="m55 45v2a4 4 0 0 1 -4 4h-4a4 4 0 0 0 4-4v-2z" fill="#ff5023" data-original="#FF5023"/><path d="m41 59v2h-4v-2a2.006 2.006 0 0 0 -2-2h4a2.006 2.006 0 0 1 2 2z" fill="#ff5023" data-original="#FF5023"/><path d="m27 51h10v6h-10z" fill="#fee9ab" data-original="#FEE9AB"/><path d="m33 51h4v6h-4z" fill="#ffd422" data-original="#FFD422"/><path d="m23 9a4 4 0 0 1 0 8h-15a5 5 0 0 1 0-10c.03 0 .07.01.1.01a4.987 4.987 0 0 1 9.16-1.6 4.049 4.049 0 0 1 1.74-.41 4 4 0 0 1 4 4z" fill="#2488ff" data-original="#2488FF" class=""/><path d="m42 31h-6a23.07 23.07 0 0 0 -.46-4.66 9.968 9.968 0 0 0 3.6-2.34 9.947 9.947 0 0 1 2.86 7z" fill="#2488ff" data-original="#2488FF" class=""/><path d="m36 31h6a9.947 9.947 0 0 1 -2.86 7 9.968 9.968 0 0 0 -3.6-2.34 23.07 23.07 0 0 0 .46-4.66z" fill="#57a4ff" data-original="#57A4FF" class=""/><path d="m32 21a9.994 9.994 0 0 1 7.14 3 9.968 9.968 0 0 1 -3.6 2.34c-.67-3.17-2-5.34-3.54-5.34z" fill="#57a4ff" data-original="#57A4FF" class=""/><path d="m39.14 38a9.994 9.994 0 0 1 -7.14 3c1.54 0 2.87-2.17 3.54-5.34a9.968 9.968 0 0 1 3.6 2.34z" fill="#2488ff" data-original="#2488FF" class=""/><path d="m36 31h-8a23.07 23.07 0 0 1 .46-4.66 9.824 9.824 0 0 0 7.08 0 23.07 23.07 0 0 1 .46 4.66z" fill="#57a4ff" data-original="#57A4FF" class=""/><path d="m28 31h8a23.07 23.07 0 0 1 -.46 4.66 9.824 9.824 0 0 0 -7.08 0 23.07 23.07 0 0 1 -.46-4.66z" fill="#2488ff" data-original="#2488FF" class=""/><path d="m32 21c1.54 0 2.87 2.17 3.54 5.34a9.824 9.824 0 0 1 -7.08 0c.67-3.17 2-5.34 3.54-5.34z" fill="#2488ff" data-original="#2488FF" class=""/><path d="m35.54 35.66c-.67 3.17-2 5.34-3.54 5.34s-2.87-2.17-3.54-5.34a9.824 9.824 0 0 1 7.08 0z" fill="#57a4ff" data-original="#57A4FF" class=""/><path d="m32 21c-1.54 0-2.87 2.17-3.54 5.34a9.968 9.968 0 0 1 -3.6-2.34 9.994 9.994 0 0 1 7.14-3z" fill="#57a4ff" data-original="#57A4FF" class=""/><path d="m28.46 35.66c.67 3.17 2 5.34 3.54 5.34a9.994 9.994 0 0 1 -7.14-3 9.968 9.968 0 0 1 3.6-2.34z" fill="#2488ff" data-original="#2488FF" class=""/><path d="m24.86 24a9.968 9.968 0 0 0 3.6 2.34 23.07 23.07 0 0 0 -.46 4.66h-6a9.947 9.947 0 0 1 2.86-7z" fill="#2488ff" data-original="#2488FF" class=""/><path d="m28.46 35.66a9.968 9.968 0 0 0 -3.6 2.34 9.947 9.947 0 0 1 -2.86-7h6a23.07 23.07 0 0 0 .46 4.66z" fill="#57a4ff" data-original="#57A4FF" class=""/><path d="m27 13a4 4 0 0 1 -4 4h-4a4 4 0 0 0 0-8 4 4 0 0 0 -4-4 4.049 4.049 0 0 0 -1.74.41 5.08 5.08 0 0 0 -2.26-1.99 4.971 4.971 0 0 1 6.26 1.99 4.049 4.049 0 0 1 1.74-.41 4 4 0 0 1 4 4 4 4 0 0 1 4 4z" fill="#006df0" data-original="#006DF0"/><path d="m37 3h24v22h-24z" fill="#bdfdff" data-original="#BDFDFF"/><path d="m57 3h4v22h-4z" fill="#46f8ff" data-original="#46F8FF" class=""/><path d="m55 9a2.006 2.006 0 0 1 2 2 2.015 2.015 0 0 1 -2 2h-2v-4z" fill="#fee9ab" data-original="#FEE9AB"/><path d="m57 11a2.015 2.015 0 0 1 -2 2h-2a2.015 2.015 0 0 0 2-2 2.006 2.006 0 0 0 -2-2h2a2.006 2.006 0 0 1 2 2z" fill="#ffd422" data-original="#FFD422"/><path d="m53 13v2l-4-.5-4-.5v-1-4-1l8-1v2z" fill="#ff3051" data-original="#FF3051"/><path d="m49 14.5v6.5l-4-1v-6z" fill="#a78966" data-original="#A78966"/><path d="m49 14.5v6.5l-2-.5v-6.25z" fill="#806749" data-original="#806749"/><path d="m53 7v8l-2-.25v-7.5z" fill="#cd2a00" data-original="#CD2A00"/><path d="m41 9h4v4h-4z" fill="#fee9ab" data-original="#FEE9AB"/><path d="m61 2h-24a1 1 0 0 0 -1 1v13h-9.03a4.924 4.924 0 0 0 1.03-3 5.021 5.021 0 0 0 -4.08-4.92 4.985 4.985 0 0 0 -6.3-3.88 5.916 5.916 0 0 0 -4.62-2.2 6.014 6.014 0 0 0 -5.67 4.04 6 6 0 0 0 .67 11.96h1.03a4.924 4.924 0 0 0 -1.03 3v26a5 5 0 0 0 5 5h13v4h-1a3.009 3.009 0 0 0 -3 3v2a1 1 0 0 0 1 1h18a1 1 0 0 0 1-1v-2a3.009 3.009 0 0 0 -3-3h-1v-4h13a5 5 0 0 0 5-5v-21h5a1 1 0 0 0 1-1v-22a1 1 0 0 0 -1-1zm-22.7 24h1.17a8.91 8.91 0 0 1 1.47 4h-3.96a23.177 23.177 0 0 0 -.32-3.04 10.811 10.811 0 0 0 1.64-.96zm-1.32 6h3.96a8.95 8.95 0 0 1 -1.88 4.57 11.038 11.038 0 0 0 -2.4-1.52 23.513 23.513 0 0 0 .32-3.05zm-.77 5.05a8.734 8.734 0 0 1 1.44.95 9.184 9.184 0 0 1 -2.33 1.36 12.77 12.77 0 0 0 .89-2.31zm-.89-14.41c.23.1.46.21.68.32v1.31a11.559 11.559 0 0 0 -.68-1.63zm.68-4.64v2.77a10.92 10.92 0 0 0 -11.85 2.53 10.813 10.813 0 0 0 -3.1 6.7h-5.05v-12zm-4 16a11.054 11.054 0 0 0 -2.76.36 20.617 20.617 0 0 1 -.22-2.36h5.96a20.617 20.617 0 0 1 -.22 2.36 11.054 11.054 0 0 0 -2.76-.36zm2.36 2.32c-.63 2.33-1.6 3.68-2.36 3.68s-1.73-1.35-2.36-3.68a8.862 8.862 0 0 1 4.72 0zm-5.34-6.32a20.617 20.617 0 0 1 .22-2.36 10.907 10.907 0 0 0 5.52.01 20.65 20.65 0 0 1 .22 2.35zm.62-4.32c.63-2.33 1.6-3.68 2.36-3.68s1.73 1.35 2.36 3.68a8.841 8.841 0 0 1 -2.36.32 9.265 9.265 0 0 1 -2.36-.32zm-2.62 6.32a23.513 23.513 0 0 0 .32 3.05 11.038 11.038 0 0 0 -2.4 1.52 8.95 8.95 0 0 1 -1.88-4.57zm-3.96-2a8.822 8.822 0 0 1 1.88-4.57 10.58 10.58 0 0 0 2.4 1.52 23.513 23.513 0 0 0 -.32 3.05zm4.73 7.05a12.77 12.77 0 0 0 .89 2.31 9.184 9.184 0 0 1 -2.33-1.36 8.734 8.734 0 0 1 1.44-.95zm0-12.1a8.734 8.734 0 0 1 -1.44-.95 9.111 9.111 0 0 1 2.33-1.36 12.488 12.488 0 0 0 -.89 2.31zm-19.79-8.95a4 4 0 0 1 -.05-8 .808.808 0 0 0 .15.01 1 1 0 0 0 .98-.8 3.99 3.99 0 0 1 7.33-1.28.981.981 0 0 0 1.29.38 2.977 2.977 0 0 1 4.3 2.69 1 1 0 0 0 1 1 3 3 0 0 1 0 6zm31 42a1 1 0 0 1 1 1v1h-16v-1a1 1 0 0 1 1-1zm-11-2v-4h8v4zm26-9a3.009 3.009 0 0 1 -3 3h-38a3.009 3.009 0 0 1 -3-3v-1h44zm0-3h-44v-23a3.009 3.009 0 0 1 3-3h1v13a1 1 0 0 0 1 1h6.05a11 11 0 0 0 21.9 0h5.05a1 1 0 0 0 1-1v-5h5zm-12.21-18h5.21v4h-4.05a10.731 10.731 0 0 0 -1.16-4zm18.21-2h-22v-20h22z" data-original="#000000" class="active-path" style="fill:#000000"/><path d="m55 8h-1v-1a.981.981 0 0 0 -.34-.75.968.968 0 0 0 -.78-.24l-8 1a1 1 0 0 0 -.88.99h-3a1 1 0 0 0 -1 1v4a1 1 0 0 0 1 1h3v6a1 1 0 0 0 .76.97l4 1a.986.986 0 0 0 .24.03.99.99 0 0 0 1-1v-5.37l2.88.36a.487.487 0 0 0 .12.01 1 1 0 0 0 .66-.25.981.981 0 0 0 .34-.75v-1h1a3 3 0 0 0 0-6zm-11 4h-2v-2h2zm4 7.72-2-.5v-4.09l2 .25zm4-5.85-6-.75v-4.24l6-.75zm3-1.87h-1v-2h1a1 1 0 0 1 0 2z" data-original="#000000" class="active-path" style="fill:#000000"/></g></g> </svg>
