<svg id="Layer_5" enable-background="new 0 0 64 64" height="512" viewBox="0 0 64 64" width="512" xmlns="http://www.w3.org/2000/svg" xmlns:xlink="http://www.w3.org/1999/xlink"><linearGradient id="SVGID_1_" gradientUnits="userSpaceOnUse" x1="32" x2="32" y1="63" y2="1"><stop offset="0" stop-color="#9f2fff"/><stop offset="1" stop-color="#0bb1d3"/></linearGradient><path d="m19 6c0-.552.448-1 1-1s1 .448 1 1-.448 1-1 1-1-.448-1-1zm18-1h-14v2h14zm4 8h-10v2h10zm-2 6h2v-2h-2zm-2-2h-6v2h6zm4 4h-10v2h10zm0 4h-10v2h10zm17.824 15.368 4.176 3.132v19.267l-12.944-7.767h-29.858c-.151.494-.315.985-.508 1.468l-.69 1.725v4.807h-14v-4.974l-1.233-3.084c-.487-1.219-.844-2.494-1.061-3.791l-1.556-9.333c-.099-.6-.15-1.212-.15-1.818 0-2.954 1.15-5.732 3.24-7.821l2.76-2.761v-23.418c0-2.757 2.243-5 5-5h32c2.757 0 5 2.243 5 5v21.586l6.546 6.546c.867.866 1.537 1.883 1.993 3.021zm-4.692-4.822-7.218-7.218c-.212-.211-.493-.328-.793-.328-.618 0-1.121.503-1.121 1.121 0 .3.117.581.328.793l2.379 2.379-1.414 1.414-2.379-2.379-2-2c-.212-.211-.493-.328-.793-.328-.618 0-1.121.503-1.121 1.121 0 .3.117.581.328.793l4.379 4.379-1.414 1.414-4.379-4.379c-.212-.211-.493-.328-.793-.328-.618 0-1.121.503-1.121 1.121 0 .295.12.584.328.793l4.379 4.379-1.414 1.414-4.379-4.379-8-8c-.212-.211-.493-.328-.793-.328-.618 0-1.121.503-1.121 1.121 0 .3.117.581.328.793l13.422 13.422.957.957-1.414 1.414-.958-.957c-1.127-1.129-2.627-1.75-4.224-1.75-1.184 0-2.329.347-3.313 1.003l-.373.249c-.266.178-.425.475-.425.794 0 .526.428.954.954.954h.149 1.897v.211c1.412.305 2.744.94 3.865 1.875l2.031 1.692c.999.832 2.206 1.369 3.492 1.553l4.258.608 10.18-10.181-1.146-2.863c-.353-.885-.874-1.675-1.548-2.349zm-29.132 11.454v2h6v-2h-.046zm-4.612-6h9.9c1.173-.644 2.476-1 3.824-1 .168 0 .333.014.499.024l-1.611-1.61v.586h-6v-6h.586l-2-2h-10.586v-2h9.14c-.083-.283-.14-.575-.14-.879 0-.396.082-.772.217-1.121h-9.217v-14h14v12.644c.112.086.227.168.328.27l5.944 5.944c.472-1.06 1.516-1.804 2.739-1.847.059-1.669 1.427-3.011 3.11-3.011.69 0 1.339.233 1.879.644v-16.644h-30v28.877l.586-2.344c.372-1.491 1.706-2.533 3.244-2.533.825 0 1.582.313 2.17.819v-2.819h6v6h-4.766zm2.612-4v-2h-2v2zm-2-20h2v-2h-2zm-2 2v-4h-2v10h10v-10h-2v4zm10 18h2v-.586l-1.414-1.414h-.586zm-20 9.146c0 .47.383.854.854.854.326 0 .619-.181.764-.473.135-.269.255-.545.382-.819v-36.708h34v17.217c.349-.135.725-.217 1.121-.217.304 0 .596.057.879.14v-20.14c0-1.654-1.346-3-3-3h-32c-1.654 0-3 1.346-3 3zm8 12.854h-10v2h10zm2-9.335c0-.418-.016-.836-.048-1.252l-.783-10.172c-.053-.696-.642-1.241-1.339-1.241-.618 0-1.154.419-1.303 1.018l-.75 2.998c-.553 2.212-1.35 4.367-2.37 6.406-.487.974-1.465 1.578-2.553 1.578-1.574 0-2.854-1.28-2.854-2.854v-13.899l-1.346 1.346c-1.712 1.712-2.654 3.987-2.654 6.407 0 .497.042.998.123 1.49l1.556 9.332c.192 1.155.511 2.291.945 3.376l1.12 2.802h10.579l.51-1.274c.774-1.937 1.167-3.976 1.167-6.061zm27.723 3.335-.064-.039-4.553-.65c-1.654-.236-3.206-.927-4.489-1.996l-2.031-1.692c-.758-.632-1.646-1.068-2.585-1.334v3.711h-10.001v-6h5.172c-.104-.301-.172-.618-.172-.954 0-.366.088-.714.214-1.046h-7.672l.405 5.26c.035.468.053.936.053 1.405 0 1.126-.108 2.24-.311 3.335zm14.277-8.5-2.906-2.18-9.481 9.481 12.387 7.432z" fill="url(#SVGID_1_)"/></svg>